<svg width="30" height="30" viewBox="0 0 1006 829" fill="none" xmlns="http://www.w3.org/2000/svg">
  <title>Diego Monsalve</title>
  <path d="M502.728 65L771.629 398.75H233.827L502.728 65Z" fill="#2262C3" fill-opacity="0.8"></path>
  <path d="M502.728 732L233.827 398.25L771.629 398.25L502.728 732Z" fill="#2262C3" fill-opacity="0.8"></path>
  <path d="M710.928 96.9285L862.205 497.942L351.279 330.057L710.928 96.9285Z" fill="#2262C3" fill-opacity="0.8"></path>
  <path d="M502.711 730.596L351.435 329.582L862.361 497.467L502.711 730.596Z" fill="#2262C3" fill-opacity="0.8"></path>
  <path d="M294.985 98.2917L654.631 331.426L143.702 499.303L294.985 98.2917Z" fill="#2262C3" fill-opacity="0.8"></path>
  <path d="M503.192 731.963L143.546 498.828L654.474 330.951L503.192 731.963Z" fill="#2262C3" fill-opacity="0.8"></path>
  <path d="M505.5 242L652 343.5L505.5 741L352.5 343.5L505.5 242Z" fill="#D12AD5"></path>
  <rect x="418.785" y="420.667" width="169.085" height="47.3333" fill="#27DF71"></rect>
  <path d="M394 377H616L587.87 414H418.785L394 377Z" fill="#FAF8FE"></path>
  <rect x="432.774" y="424.667" width="28.5863" height="6" fill="#FFFCFC"></rect>
  <rect x="421.218" y="433" width="112.521" height="6" fill="#FFFCFC"></rect>
  <rect x="446.763" y="458" width="59.6055" height="6" fill="#FFFCFC"></rect>
  <path d="M432.774 441.333H533.738L531.61 452L521.467 453.667H480.064H442.651L434.142 452L432.774 441.333Z"
    fill="#FFFCFC"></path>
  <rect x="505.152" y="424.333" width="28.5863" height="6" fill="#FFFCFC"></rect>
  <rect x="539.82" y="424.667" width="21.8959" height="6" fill="#FFFCFC"></rect>
  <rect x="539.82" y="433" width="21.8959" height="11.6667" fill="#FFFCFC"></rect>
  <rect x="564.453" y="432.667" width="21.8959" height="33" fill="#FFFCFC"></rect>
  <rect x="467.443" y="424.333" width="28.5863" height="6" fill="#FFFCFC"></rect>
  <rect x="421.218" y="424.333" width="5.47397" height="6" fill="#FFFCFC"></rect>
  <rect x="439.464" y="458" width="5.47397" height="6" fill="#FFFCFC"></rect>
  <rect x="539.82" y="459.667" width="5.47397" height="6" fill="#FFFCFC"></rect>
  <rect x="548.031" y="452" width="5.47397" height="6" fill="#FFFCFC"></rect>
  <rect x="556.242" y="459.667" width="5.47397" height="6" fill="#FFFCFC"></rect>
  <rect x="548.031" y="459.667" width="5.47397" height="6" fill="#FFFCFC"></rect>
  <rect x="516.708" y="458" width="5.47397" height="6" fill="#FFFCFC"></rect>
  <rect x="432.166" y="458" width="5.47397" height="6" fill="#FFFCFC"></rect>
  <rect x="508.497" y="458" width="5.47397" height="6" fill="#FFFCFC"></rect>
  <rect x="421.218" y="441.333" width="8.81918" height="6" fill="#FFFCFC"></rect>
  <rect x="421.218" y="458" width="8.81918" height="6" fill="#FFFCFC"></rect>
  <rect x="524.919" y="458" width="8.81918" height="6" fill="#FFFCFC"></rect>
  <rect x="421.218" y="449.667" width="8.81918" height="6" fill="#FFFCFC"></rect>
</svg>