<svg width="35" height="35" viewBox="0 0 35 35" fill="none" xmlns="http://www.w3.org/2000/svg">
<path d="M7.3676 32.2871L7.36277 32.2845C3.4167 30.1253 1.44144 26.3259 1.05721 21.8688L1.05615 21.8565L1.05479 21.8442C0.981197 21.1819 0.98281 20.5301 1.05319 19.9671L1.06091 19.9054V19.8431C1.06091 13.7965 4.26383 7.19609 8.54757 3.90679L8.54918 3.90555C11.6664 1.50193 16.0124 0.59974 20.2215 1.16096C24.43 1.72209 28.3567 3.72616 30.6786 6.94688L30.6788 6.9472C34.9727 12.8983 33.5936 21.4784 28.868 26.9012L28.8679 26.9011L28.8612 26.909C26.3956 29.7984 22.7513 32.1292 18.8335 33.2348C14.9188 34.3394 10.8179 34.1998 7.3676 32.2871Z" stroke="#c0e420" stroke-width="2"/>
</svg>
