<svg xmlns="http://www.w3.org/2000/svg" width="30" height="30" fill="none" viewBox="0 0 1006 829"><title>Diego Monsalve</title><path fill="#2262c3" fill-opacity=".8" d="m502.728 65 268.901 333.75H233.827z"/><path fill="#2262c3" fill-opacity=".8" d="M502.728 732 233.827 398.25h537.802z"/><path fill="#2262c3" fill-opacity=".8" d="m710.928 96.929 151.277 401.013-510.926-167.885z"/><path fill="#2262c3" fill-opacity=".8" d="M502.711 730.596 351.435 329.582l510.926 167.885z"/><path fill="#2262c3" fill-opacity=".8" d="m294.985 98.292 359.646 233.134-510.929 167.877z"/><path fill="#2262c3" fill-opacity=".8" d="M503.192 731.963 143.546 498.828l510.928-167.877z"/><path fill="#d12ad5" d="M505.5 242 652 343.5 505.5 741l-153-397.5z"/><path fill="#27df71" d="M418.785 420.667H587.87V468H418.785z"/><path fill="#faf8fe" d="M394 377h222l-28.13 37H418.785z"/><path fill="#fffcfc" d="M432.774 424.667h28.586v6h-28.586zM421.218 433h112.521v6H421.218zm25.545 25h59.605v6h-59.605zm-13.989-16.667h100.964L531.61 452l-10.143 1.667h-78.816L434.142 452zm72.378-17h28.586v6h-28.586zm34.668.334h21.896v6H539.82zm0 8.333h21.896v11.667H539.82zm24.633-.333h21.896v33h-21.896zm-97.01-8.334h28.586v6h-28.586zm-46.225 0h5.474v6h-5.474zM439.464 458h5.474v6h-5.474zm100.356 1.667h5.474v6h-5.474zm8.211-7.667h5.474v6h-5.474zm8.211 7.667h5.474v6h-5.474zm-8.211 0h5.474v6h-5.474zM516.708 458h5.474v6h-5.474zm-84.542 0h5.474v6h-5.474zm76.331 0h5.474v6h-5.474zm-87.279-16.667h8.819v6h-8.819zm0 16.667h8.819v6h-8.819zm103.701 0h8.819v6h-8.819zm-103.701-8.333h8.819v6h-8.819z"/></svg>